<?xml version="1.0" encoding="UTF-8" standalone="no"?>
<!DOCTYPE svg PUBLIC "-//W3C//DTD SVG 1.1//EN" "http://www.w3.org/Graphics/SVG/1.1/DTD/svg11.dtd">
<svg version="1.1" xmlns="http://www.w3.org/2000/svg" xmlns:xlink="http://www.w3.org/1999/xlink" preserveAspectRatio="xMidYMid meet" viewBox="0 0 250 63" width="250" height="63"><defs><path d="M10.34 33.74C11.48 31.63 13.27 30.58 15.69 30.58C18.17 30.58 20.13 31.58 21.57 33.58C23.01 35.58 23.73 38.33 23.73 41.82C23.73 45.19 22.99 47.9 21.51 49.97C20.03 52.04 17.89 53.07 15.1 53.07C13.64 53.07 12.46 52.82 11.55 52.32C10.64 51.82 9.72 50.82 8.79 49.31C8.39 49.72 7.92 50.83 7.37 52.62C7.15 52.62 6.01 52.62 3.97 52.62L3.97 23.44L10.34 23.44C10.34 29.62 10.34 33.06 10.34 33.74ZM11.3 47.49C11.93 48.26 12.69 48.65 13.57 48.65C14.63 48.65 15.5 48.18 16.18 47.25C16.87 46.31 17.21 44.5 17.21 41.81C17.21 38.74 16.86 36.82 16.15 36.03C15.44 35.25 14.64 34.86 13.74 34.86C12.7 34.86 11.88 35.3 11.26 36.18C10.65 37.07 10.35 38.32 10.35 39.94C10.35 40.22 10.35 41.6 10.35 44.07C10.56 45.84 10.87 46.98 11.3 47.49Z" id="a6sbq5oo6"></path><path d="M44.46 33.81C46.31 35.96 47.23 38.65 47.23 41.89C47.23 45.08 46.27 47.75 44.36 49.88C42.44 52.01 39.9 53.07 36.72 53.07C33.64 53.07 31.18 52.02 29.34 49.91C27.5 47.8 26.57 45.09 26.57 41.78C26.57 39.49 26.99 37.54 27.82 35.94C28.66 34.33 29.8 33.04 31.25 32.05C32.7 31.07 34.54 30.58 36.76 30.58C40.05 30.58 42.62 31.66 44.46 33.81ZM34.2 36.15C33.59 37.08 33.29 38.94 33.29 41.72C33.29 44.27 33.58 46.1 34.16 47.21C34.75 48.32 35.65 48.88 36.89 48.88C37.97 48.88 38.85 48.41 39.51 47.46C40.18 46.51 40.52 44.7 40.52 42.04C40.52 39.2 40.22 37.28 39.63 36.27C39.04 35.25 38.14 34.75 36.93 34.75C35.73 34.75 34.82 35.21 34.2 36.15Z" id="awrJ9U0XV"></path><path d="M67.9 33.81C69.74 35.96 70.66 38.65 70.66 41.89C70.66 45.08 69.71 47.75 67.79 49.88C65.87 52.01 63.33 53.07 60.15 53.07C57.08 53.07 54.62 52.02 52.77 49.91C50.93 47.8 50.01 45.09 50.01 41.78C50.01 39.49 50.42 37.54 51.26 35.94C52.09 34.33 53.23 33.04 54.69 32.05C56.14 31.07 57.98 30.58 60.2 30.58C63.49 30.58 66.05 31.66 67.9 33.81ZM57.64 36.15C57.03 37.08 56.72 38.94 56.72 41.72C56.72 44.27 57.01 46.1 57.6 47.21C58.18 48.32 59.09 48.88 60.33 48.88C61.41 48.88 62.28 48.41 62.95 47.46C63.62 46.51 63.95 44.7 63.95 42.04C63.95 39.2 63.65 37.28 63.07 36.27C62.48 35.25 61.58 34.75 60.37 34.75C59.16 34.75 58.25 35.21 57.64 36.15Z" id="h1RKMh077d"></path><path d="M98.28 52.62C98.28 45.45 98.28 41.47 98.28 40.67C98.28 38.99 98.23 37.9 98.13 37.39C98.03 36.88 97.77 36.46 97.35 36.13C96.92 35.79 96.34 35.63 95.6 35.63C94.9 35.63 94.19 35.88 93.47 36.37C92.74 36.87 92.37 38.31 92.37 40.67C92.37 41.47 92.37 45.45 92.37 52.62L86 52.62C86 45.45 86 41.47 86 40.67C86 38.95 85.92 37.83 85.77 37.33C85.61 36.82 85.31 36.41 84.88 36.1C84.45 35.78 83.89 35.63 83.22 35.63C82.13 35.63 81.31 35.97 80.77 36.66C80.24 37.35 79.97 38.69 79.97 40.67C79.97 41.47 79.97 45.45 79.97 52.62L73.79 52.62L73.79 31.03L79.78 31.03C79.78 33 79.78 34.1 79.78 34.32C80.79 31.83 82.82 30.58 85.86 30.58C88.62 30.58 90.61 31.83 91.84 34.32C93.04 31.83 95.12 30.58 98.1 30.58C99.53 30.58 100.76 30.87 101.78 31.46C102.81 32.04 103.54 32.8 103.98 33.74C104.43 34.68 104.65 36.3 104.65 38.6C104.65 39.53 104.65 44.21 104.65 52.62L98.28 52.62Z" id="b3b4IWeD2j"></path><path d="M133.9 52.62C133.9 45.35 133.9 41.31 133.9 40.5C133.9 39.03 133.84 38.03 133.73 37.49C133.61 36.94 133.34 36.49 132.89 36.11C132.45 35.73 131.9 35.54 131.23 35.54C128.99 35.54 127.87 37.19 127.87 40.5C127.87 41.31 127.87 45.35 127.87 52.62L121.5 52.62L121.5 31.03L127.42 31.03C127.42 33.22 127.42 34.44 127.42 34.68C128.4 32.95 129.37 31.83 130.33 31.33C131.28 30.83 132.32 30.58 133.43 30.58C135.48 30.58 137.14 31.13 138.39 32.24C139.65 33.34 140.27 35.51 140.27 38.75C140.27 39.67 140.27 44.3 140.27 52.62L133.9 52.62Z" id="bOfOKGNE4"></path><path d="M165.42 31.31C164.01 31.31 163.18 31.93 162.94 33.19C164.09 34.4 164.67 35.77 164.67 37.29C164.67 39.33 163.82 40.96 162.11 42.17C160.41 43.38 157.95 43.98 154.75 43.98C153.61 43.98 152.49 43.88 151.41 43.66C150.68 44.09 150.32 44.64 150.32 45.31C150.32 46.05 150.63 46.54 151.24 46.79C151.85 47.03 153.33 47.21 155.67 47.32C158.99 47.49 161.28 47.7 162.53 47.94C163.78 48.18 164.84 48.77 165.69 49.69C166.55 50.62 166.98 51.78 166.98 53.16C166.98 55.14 166.06 56.81 164.23 58.18C162.4 59.55 159.15 60.23 154.49 60.23C150.11 60.23 147.16 59.76 145.64 58.81C144.11 57.86 143.35 56.66 143.35 55.21C143.35 53.28 144.58 51.98 147.05 51.31C145.22 50.4 144.31 49.11 144.31 47.46C144.31 45.39 145.75 43.78 148.63 42.63C146.08 41.57 144.8 39.81 144.8 37.35C144.8 35.34 145.68 33.71 147.44 32.46C149.2 31.2 151.64 30.58 154.75 30.58C156.71 30.58 158.62 30.89 160.46 31.52C160.59 30.29 160.94 29.29 161.54 28.49C162.13 27.7 163.39 27.31 165.31 27.31C165.94 27.31 166.54 27.36 167.11 27.48C167.11 27.75 167.11 29.1 167.11 31.52C166.28 31.38 165.72 31.31 165.42 31.31ZM149.48 52.99C149.08 53.33 148.89 53.74 148.89 54.23C148.89 55.2 149.51 55.8 150.75 56.05C151.99 56.29 153.44 56.41 155.11 56.41C157.29 56.41 158.82 56.24 159.7 55.92C160.57 55.59 161.01 55.06 161.01 54.33C161.01 53.78 160.64 53.35 159.91 53.05C159.18 52.75 157.22 52.6 154.04 52.6C153.91 52.6 152.89 52.62 152.76 52.62C151.97 52.62 151.45 52.6 151.17 52.56C150.88 52.5 150.63 52.47 150.45 52.47C150.19 52.47 149.87 52.65 149.48 52.99ZM152.12 34.91C151.51 35.5 151.2 36.28 151.2 37.25C151.2 39.45 152.37 40.54 154.72 40.54C155.85 40.54 156.74 40.23 157.39 39.58C158.04 38.94 158.36 38.16 158.36 37.25C158.36 36.4 158.06 35.64 157.45 35C156.83 34.35 155.92 34.02 154.69 34.02C153.6 34.02 152.74 34.32 152.12 34.91Z" id="dQc6hebkA"></path><path d="M184.41 31.8C183.62 29.49 181.97 28.33 179.43 28.33C176.73 28.33 175.38 29.21 175.38 30.96C175.38 31.66 175.63 32.25 176.14 32.74C176.65 33.22 177.79 33.64 179.57 34C182.54 34.6 184.72 35.21 186.1 35.82C187.48 36.43 188.64 37.42 189.59 38.78C190.54 40.14 191.01 41.66 191.01 43.35C191.01 45.98 190 48.26 187.97 50.19C185.94 52.11 182.93 53.07 178.94 53.07C175.95 53.07 173.4 52.39 171.3 51.03C169.2 49.67 167.82 47.65 167.15 44.97C167.78 44.83 172.85 43.68 173.48 43.53C174.19 46.26 176.17 47.62 179.41 47.62C180.98 47.62 182.14 47.32 182.91 46.71C183.68 46.11 184.06 45.38 184.06 44.54C184.06 43.69 183.71 43.02 183.02 42.55C182.32 42.08 180.97 41.64 178.98 41.22C175.27 40.45 172.62 39.4 171.04 38.07C169.46 36.74 168.67 34.79 168.67 32.22C168.67 29.63 169.61 27.44 171.5 25.66C173.39 23.88 175.94 22.99 179.18 22.99C184.9 22.99 188.58 25.28 190.22 29.85C189.06 30.24 184.99 31.6 184.41 31.8Z" id="d5aJVniKSj"></path><path d="M202.07 45.12C202.07 46.26 202.23 47.02 202.58 47.41C202.92 47.79 203.72 47.98 204.98 47.98C205.56 47.98 206.24 47.96 207 47.9C207 48.37 207 52.15 207 52.62C205.15 52.94 203.82 53.1 203.01 53.1C200.35 53.1 198.47 52.59 197.36 51.57C196.25 50.55 195.69 48.71 195.69 46.04C195.69 45.37 195.69 42.02 195.69 35.99L192.27 35.99L192.27 31.03L196.06 31.03L196.57 24.66L202.06 24.23L202.06 31.03L206.7 31.03L206.7 35.99L202.07 35.99C202.07 41.47 202.07 44.51 202.07 45.12Z" id="a2jNWZCeHD"></path><path d="M223.32 52.62C223.12 51.77 223.02 50.64 223.02 49.25C221.94 50.78 220.86 51.81 219.79 52.31C218.71 52.82 217.49 53.07 216.12 53.07C214.1 53.07 212.47 52.52 211.23 51.43C209.98 50.33 209.36 48.86 209.36 47C209.36 45.65 209.72 44.4 210.45 43.26C211.17 42.12 212.34 41.22 213.95 40.58C215.56 39.93 218.49 39.45 222.74 39.13C222.74 39.01 222.74 38.02 222.74 37.89C222.74 35.8 221.7 34.75 219.61 34.75C217.38 34.75 216.13 35.8 215.88 37.89C215.29 37.84 210.59 37.39 210 37.34C210.39 34.89 211.55 33.15 213.48 32.12C215.42 31.09 217.62 30.58 220.07 30.58C221.54 30.58 222.92 30.75 224.22 31.09C225.52 31.44 226.53 31.95 227.25 32.63C227.98 33.32 228.47 34.04 228.73 34.8C228.99 35.56 229.11 36.89 229.11 38.79C229.11 39.77 229.11 47.6 229.11 48.58C229.11 50.46 229.24 51.81 229.5 52.62C228.26 52.62 223.94 52.62 223.32 52.62ZM216.07 46.32C216.07 47.07 216.31 47.72 216.77 48.27C217.24 48.82 217.91 49.1 218.78 49.1C219.9 49.1 220.84 48.63 221.6 47.7C222.36 46.76 222.74 45.61 222.74 44.24C222.74 44.11 222.74 43.46 222.74 42.28C218.3 43.47 216.07 44.81 216.07 46.32Z" id="hBntEBXEl"></path><path d="M234.37 52.62L234.37 31.03L240.21 31.03C240.21 33.44 240.21 34.78 240.21 35.05C241.11 32.06 242.66 30.56 244.87 30.56C245.19 30.56 245.57 30.58 246.03 30.62C246.03 31.25 246.03 36.28 246.03 36.91C244.73 36.91 243.72 37.11 243 37.51C242.28 37.91 241.69 38.62 241.24 39.66C240.78 40.69 240.55 42.08 240.55 43.84C240.55 44.42 240.55 47.35 240.55 52.62L234.37 52.62Z" id="c1wZhvVmdW"></path><path d="M116.26 31.03C116.26 31.03 116.26 31.03 116.26 31.03C116.26 43.99 116.26 51.18 116.26 52.62C116.26 52.62 116.26 52.62 116.26 52.62C112.44 52.62 110.31 52.62 109.89 52.62C109.89 52.62 109.89 52.62 109.89 52.62C109.89 39.67 109.89 32.47 109.89 31.03C109.89 31.03 109.89 31.03 109.89 31.03C113.71 31.03 115.83 31.03 116.26 31.03Z" id="b1UqCrnS3Q"></path><path d="M114.33 23.51L117.48 23.97L115.2 26.2L115.74 29.34L112.92 27.85L110.1 29.34L110.64 26.2L108.36 23.97L111.51 23.51L112.92 20.66L114.33 23.51Z" id="baoyyMfm5"></path><path d="M181.23 22.33C180.88 22.01 180.36 21.53 179.65 20.97C178.95 20.4 178.08 19.73 177.02 19.01C175.97 18.3 174.75 17.52 173.35 16.75C172.65 16.36 171.91 15.98 171.13 15.6C170.36 15.21 169.53 14.85 168.68 14.49C166.96 13.77 165.09 13.09 163.09 12.53C161.09 11.97 158.98 11.49 156.77 11.19C154.56 10.87 152.27 10.7 149.97 10.68C147.66 10.67 145.33 10.83 143.05 11.12C140.77 11.41 138.54 11.88 136.41 12.42C134.27 12.97 132.25 13.64 130.36 14.35C129.89 14.54 129.42 14.71 128.97 14.89C128.52 15.08 128.08 15.27 127.64 15.45C127.2 15.64 126.79 15.84 126.37 16.02C126.16 16.12 125.96 16.21 125.75 16.31C125.55 16.4 125.35 16.5 125.16 16.6C124.76 16.79 124.38 16.98 124 17.16C123.63 17.35 123.27 17.54 122.92 17.73C122.21 18.09 121.56 18.48 120.94 18.82C119.71 19.52 118.66 20.16 117.82 20.71C116.96 21.25 116.31 21.71 115.87 22.01C115.42 22.31 115.18 22.48 115.18 22.48C115.18 22.48 115.43 22.33 115.9 22.06C116.37 21.79 117.06 21.39 117.94 20.9C118.39 20.66 118.87 20.38 119.42 20.1C119.69 19.96 119.97 19.81 120.26 19.66C120.55 19.5 120.85 19.34 121.17 19.19C121.8 18.88 122.46 18.53 123.18 18.21C123.54 18.04 123.91 17.87 124.28 17.69C124.66 17.52 125.05 17.35 125.45 17.18C127.04 16.49 128.78 15.79 130.65 15.15C132.52 14.5 134.52 13.91 136.61 13.4C137.14 13.27 137.66 13.14 138.2 13.04C138.73 12.93 139.27 12.82 139.81 12.73C140.08 12.68 140.35 12.63 140.63 12.58C140.9 12.53 141.17 12.5 141.45 12.45C141.72 12.41 142 12.37 142.27 12.33C142.55 12.29 142.83 12.26 143.1 12.22C145.32 11.95 147.58 11.81 149.83 11.83C152.07 11.84 154.3 11.99 156.45 12.29C156.72 12.32 156.98 12.36 157.25 12.4C157.52 12.44 157.78 12.48 158.05 12.53C158.58 12.61 159.1 12.71 159.62 12.81C160.66 13.02 161.67 13.24 162.65 13.5C163.15 13.63 163.63 13.77 164.11 13.9C164.59 14.05 165.06 14.19 165.52 14.34C166.45 14.63 167.34 14.95 168.2 15.27C169.92 15.93 171.5 16.63 172.92 17.33C174.34 18.03 175.61 18.73 176.7 19.38C177.79 20.03 178.73 20.63 179.47 21.15C180.22 21.66 180.79 22.08 181.18 22.38C181.56 22.68 181.75 22.84 181.75 22.84C181.65 22.74 181.58 22.66 181.23 22.33Z" id="aDahHEzxN"></path><path d="M190.37 15.34C189.89 14.98 189.17 14.45 188.23 13.83C187.29 13.21 186.12 12.48 184.73 11.72C183.35 10.95 181.76 10.13 179.97 9.34C179.07 8.94 178.13 8.55 177.14 8.16C176.16 7.77 175.12 7.41 174.05 7.06C171.91 6.37 169.6 5.72 167.17 5.26C164.74 4.78 162.19 4.42 159.58 4.28C156.97 4.12 154.31 4.16 151.65 4.38C149 4.6 146.37 5.04 143.83 5.65C141.28 6.24 138.83 7.04 136.52 7.94C134.2 8.84 132.04 9.87 130.05 10.94C129.56 11.21 129.06 11.47 128.59 11.75C128.12 12.03 127.65 12.3 127.2 12.57C126.74 12.85 126.31 13.13 125.88 13.41C125.66 13.54 125.45 13.68 125.24 13.82C125.03 13.96 124.83 14.1 124.62 14.23C124.22 14.51 123.82 14.78 123.44 15.05C123.06 15.32 122.69 15.59 122.33 15.86C121.61 16.38 120.95 16.91 120.33 17.4C119.09 18.39 118.04 19.28 117.21 20.05C116.35 20.79 115.72 21.42 115.28 21.84C114.85 22.26 114.62 22.48 114.62 22.48C114.62 22.48 114.87 22.28 115.34 21.9C115.81 21.52 116.5 20.95 117.4 20.26C117.85 19.92 118.34 19.52 118.89 19.13C119.17 18.92 119.45 18.71 119.75 18.5C120.04 18.28 120.35 18.05 120.68 17.83C121.33 17.38 122 16.89 122.75 16.41C123.12 16.17 123.5 15.92 123.89 15.67C124.28 15.42 124.69 15.17 125.1 14.92C126.75 13.91 128.58 12.87 130.58 11.88C132.57 10.89 134.72 9.96 136.99 9.11C137.56 8.91 138.13 8.69 138.72 8.51C139.31 8.32 139.89 8.12 140.49 7.95C140.79 7.86 141.09 7.78 141.4 7.69C141.7 7.6 142 7.53 142.31 7.45C142.61 7.37 142.92 7.29 143.22 7.21C143.53 7.13 143.84 7.06 144.15 6.99C146.63 6.42 149.2 6.01 151.77 5.8C154.35 5.57 156.94 5.52 159.48 5.66C159.8 5.68 160.12 5.69 160.43 5.71C160.75 5.74 161.06 5.76 161.38 5.79C162.01 5.83 162.63 5.9 163.25 5.96C164.49 6.11 165.71 6.27 166.9 6.49C167.5 6.59 168.09 6.72 168.67 6.83C169.25 6.96 169.83 7.07 170.4 7.21C171.53 7.47 172.63 7.77 173.7 8.07C175.83 8.7 177.81 9.38 179.62 10.09C181.42 10.8 183.04 11.52 184.46 12.2C185.87 12.88 187.08 13.52 188.07 14.07C189.05 14.63 189.81 15.08 190.32 15.4C190.83 15.72 191.1 15.91 191.1 15.91C190.95 15.79 190.85 15.7 190.37 15.34Z" id="arbTVZW4C"></path></defs><g><g><g><use xlink:href="#a6sbq5oo6" opacity="1" fill="#f6851f" fill-opacity="1"></use><g><use xlink:href="#a6sbq5oo6" opacity="1" fill-opacity="0" stroke="#000000" stroke-width="1" stroke-opacity="0"></use></g></g><g><use xlink:href="#awrJ9U0XV" opacity="1" fill="#f6851f" fill-opacity="1"></use><g><use xlink:href="#awrJ9U0XV" opacity="1" fill-opacity="0" stroke="#000000" stroke-width="1" stroke-opacity="0"></use></g></g><g><use xlink:href="#h1RKMh077d" opacity="1" fill="#f6851f" fill-opacity="1"></use><g><use xlink:href="#h1RKMh077d" opacity="1" fill-opacity="0" stroke="#000000" stroke-width="1" stroke-opacity="0"></use></g></g><g><use xlink:href="#b3b4IWeD2j" opacity="1" fill="#f6851f" fill-opacity="1"></use><g><use xlink:href="#b3b4IWeD2j" opacity="1" fill-opacity="0" stroke="#000000" stroke-width="1" stroke-opacity="0"></use></g></g><g><use xlink:href="#bOfOKGNE4" opacity="1" fill="#f6851f" fill-opacity="1"></use><g><use xlink:href="#bOfOKGNE4" opacity="1" fill-opacity="0" stroke="#000000" stroke-width="1" stroke-opacity="0"></use></g></g><g><use xlink:href="#dQc6hebkA" opacity="1" fill="#f6851f" fill-opacity="1"></use><g><use xlink:href="#dQc6hebkA" opacity="1" fill-opacity="0" stroke="#000000" stroke-width="1" stroke-opacity="0"></use></g></g><g><use xlink:href="#d5aJVniKSj" opacity="1" fill="#435aa8" fill-opacity="1"></use><g><use xlink:href="#d5aJVniKSj" opacity="1" fill-opacity="0" stroke="#000000" stroke-width="1" stroke-opacity="0"></use></g></g><g><use xlink:href="#a2jNWZCeHD" opacity="1" fill="#435aa8" fill-opacity="1"></use><g><use xlink:href="#a2jNWZCeHD" opacity="1" fill-opacity="0" stroke="#000000" stroke-width="1" stroke-opacity="0"></use></g></g><g><use xlink:href="#hBntEBXEl" opacity="1" fill="#435aa8" fill-opacity="1"></use><g><use xlink:href="#hBntEBXEl" opacity="1" fill-opacity="0" stroke="#000000" stroke-width="1" stroke-opacity="0"></use></g></g><g><use xlink:href="#c1wZhvVmdW" opacity="1" fill="#435aa8" fill-opacity="1"></use><g><use xlink:href="#c1wZhvVmdW" opacity="1" fill-opacity="0" stroke="#000000" stroke-width="1" stroke-opacity="0"></use></g></g><g><use xlink:href="#b1UqCrnS3Q" opacity="1" fill="#f6851f" fill-opacity="1"></use><g><use xlink:href="#b1UqCrnS3Q" opacity="1" fill-opacity="0" stroke="#000000" stroke-width="1" stroke-opacity="0"></use></g></g><g><use xlink:href="#baoyyMfm5" opacity="1" fill="#f6851f" fill-opacity="1"></use><g><use xlink:href="#baoyyMfm5" opacity="1" fill-opacity="0" stroke="#000000" stroke-width="1" stroke-opacity="0"></use></g></g><g><use xlink:href="#aDahHEzxN" opacity="1" fill="#f6851f" fill-opacity="1"></use><g><use xlink:href="#aDahHEzxN" opacity="1" fill-opacity="0" stroke="#000000" stroke-width="1" stroke-opacity="0"></use></g></g><g><use xlink:href="#arbTVZW4C" opacity="1" fill="#f6851f" fill-opacity="1"></use><g><use xlink:href="#arbTVZW4C" opacity="1" fill-opacity="0" stroke="#000000" stroke-width="1" stroke-opacity="0"></use></g></g></g></g></svg>