<?xml version="1.0" encoding="utf-8"?>
<!-- Generator: Adobe Illustrator 27.9.4, SVG Export Plug-In . SVG Version: 9.03 Build 54784)  -->
<svg version="1.1" id="Layer_1" xmlns="http://www.w3.org/2000/svg" xmlns:xlink="http://www.w3.org/1999/xlink" x="0px" y="0px"
	 viewBox="0 0 48.57 46.82" style="enable-background:new 0 0 48.57 46.82;" xml:space="preserve">
<style type="text/css">
	.st0{fill:url(#SVGID_1_);}
	.st1{fill:url(#SVGID_00000059283338435778201690000004072061587827905431_);}
</style>
<g>
	<linearGradient id="SVGID_1_" gradientUnits="userSpaceOnUse" x1="30.8007" y1="39.0333" x2="30.8007" y2="17.4131">
		<stop  offset="0" style="stop-color:#2E3192"/>
		<stop  offset="4.738735e-03" style="stop-color:#343190"/>
		<stop  offset="0.0531" style="stop-color:#653B81"/>
		<stop  offset="0.1028" style="stop-color:#894573"/>
		<stop  offset="0.153" style="stop-color:#A64F67"/>
		<stop  offset="0.2035" style="stop-color:#C0585B"/>
		<stop  offset="0.2547" style="stop-color:#D35F4F"/>
		<stop  offset="0.3067" style="stop-color:#E16545"/>
		<stop  offset="0.36" style="stop-color:#EA683E"/>
		<stop  offset="0.4168" style="stop-color:#ED693C"/>
		<stop  offset="0.9598" style="stop-color:#00AEEF"/>
	</linearGradient>
	<path class="st0" d="M39.15,17.41c0.78,7.26,1.53,14.36,2.31,21.62c-0.67-0.85-1.26-1.57-1.84-2.31c-1.88-2.42-3.77-4.84-5.63-7.28
		c-0.29-0.38-0.59-0.48-1.04-0.43c-4.04,0.48-8.08,0.94-12.13,1.4c-0.21,0.02-0.41,0.04-0.68-0.08
		C26.45,26.05,32.75,21.76,39.15,17.41z"/>
	<g>
		
			<linearGradient id="SVGID_00000154407214330661522980000003348025995293405317_" gradientUnits="userSpaceOnUse" x1="2.8341" y1="22.6451" x2="39.9707" y2="22.6451">
			<stop  offset="0" style="stop-color:#FFF33B"/>
			<stop  offset="0.0303" style="stop-color:#FFE029"/>
			<stop  offset="0.0664" style="stop-color:#FFD217"/>
			<stop  offset="0.1035" style="stop-color:#FEC90E"/>
			<stop  offset="0.1431" style="stop-color:#FDC70C"/>
			<stop  offset="0.3237" style="stop-color:#F3903F"/>
			<stop  offset="0.5074" style="stop-color:#ED683C"/>
			<stop  offset="1" style="stop-color:#E93E3A"/>
		</linearGradient>
		<path style="fill:url(#SVGID_00000154407214330661522980000003348025995293405317_);" d="M39.97,8.42
			c-1.1,0.59-2.2,1.18-3.31,1.77c-1.21,0.65-2.44,1.28-3.63,1.95c-0.4,0.23-0.69,0.19-1.08-0.03c-4.47-2.6-9.09-2.67-13.67-0.43
			c-3.5,1.72-5.43,4.74-6.06,8.54c-0.52,3.11-0.17,6.13,1.39,8.92c1.9,3.39,4.9,5.22,8.66,5.84c3.19,0.52,6.28,0.16,9.16-1.44
			c0.33-0.18,0.65-0.39,1.04-0.62c1.38,2.24,2.76,4.46,4.19,6.77c-0.73,0.39-1.41,0.8-2.13,1.12c-3.88,1.78-7.97,2.32-12.2,2.01
			c-3.83-0.28-7.41-1.34-10.63-3.45c-4.88-3.2-7.75-7.71-8.62-13.47c-0.66-4.35-0.12-8.55,1.89-12.5c2.38-4.69,6.14-7.85,11.07-9.58
			c5.74-2.01,11.51-1.92,17.22,0.15c2.37,0.86,4.46,2.21,6.29,3.95c0.12,0.11,0.23,0.23,0.33,0.34C39.93,8.3,39.94,8.34,39.97,8.42z
			"/>
	</g>
</g>
</svg>
