<?xml version="1.0" encoding="utf-8"?>
<!-- Generator: Adobe Illustrator 27.9.4, SVG Export Plug-In . SVG Version: 9.03 Build 54784)  -->
<svg version="1.1" id="Layer_1" xmlns="http://www.w3.org/2000/svg" xmlns:xlink="http://www.w3.org/1999/xlink" x="0px" y="0px"
	 viewBox="0 0 145.07 49.79" style="enable-background:new 0 0 145.07 49.79;" xml:space="preserve">
<style type="text/css">
	.st0{fill:url(#SVGID_1_);}
	.st1{fill:url(#SVGID_00000083070440422120946440000015544182416441493159_);}
	.st2{fill:#FFFFFF;}
</style>
<g>
	<g>
		<linearGradient id="SVGID_1_" gradientUnits="userSpaceOnUse" x1="27.9665" y1="36.6597" x2="27.9665" y2="15.0395">
			<stop  offset="0" style="stop-color:#2E3192"/>
			<stop  offset="4.738735e-03" style="stop-color:#343190"/>
			<stop  offset="0.0531" style="stop-color:#653B81"/>
			<stop  offset="0.1028" style="stop-color:#894573"/>
			<stop  offset="0.153" style="stop-color:#A64F67"/>
			<stop  offset="0.2035" style="stop-color:#C0585B"/>
			<stop  offset="0.2547" style="stop-color:#D35F4F"/>
			<stop  offset="0.3067" style="stop-color:#E16545"/>
			<stop  offset="0.36" style="stop-color:#EA683E"/>
			<stop  offset="0.4168" style="stop-color:#ED693C"/>
			<stop  offset="0.9598" style="stop-color:#00AEEF"/>
		</linearGradient>
		<path class="st0" d="M36.31,15.04c0.78,7.26,1.53,14.36,2.31,21.62c-0.67-0.85-1.26-1.57-1.84-2.31
			c-1.88-2.42-3.77-4.84-5.63-7.28c-0.29-0.38-0.59-0.48-1.04-0.43c-4.04,0.48-8.08,0.94-12.13,1.4c-0.21,0.02-0.41,0.04-0.68-0.08
			C23.61,23.67,29.91,19.39,36.31,15.04z"/>
		<g>
			
				<linearGradient id="SVGID_00000009573949069170412510000004235279156677187492_" gradientUnits="userSpaceOnUse" x1="0" y1="20.2715" x2="37.1366" y2="20.2715">
				<stop  offset="0" style="stop-color:#FFF33B"/>
				<stop  offset="0.0303" style="stop-color:#FFE029"/>
				<stop  offset="0.0664" style="stop-color:#FFD217"/>
				<stop  offset="0.1035" style="stop-color:#FEC90E"/>
				<stop  offset="0.1431" style="stop-color:#FDC70C"/>
				<stop  offset="0.3237" style="stop-color:#F3903F"/>
				<stop  offset="0.5074" style="stop-color:#ED683C"/>
				<stop  offset="1" style="stop-color:#E93E3A"/>
			</linearGradient>
			<path style="fill:url(#SVGID_00000009573949069170412510000004235279156677187492_);" d="M37.14,6.05
				c-1.1,0.59-2.2,1.18-3.31,1.77c-1.21,0.65-2.44,1.28-3.63,1.95c-0.4,0.23-0.69,0.19-1.08-0.03c-4.47-2.6-9.09-2.67-13.67-0.43
				c-3.5,1.72-5.43,4.74-6.06,8.54c-0.52,3.11-0.17,6.13,1.39,8.92c1.9,3.39,4.9,5.22,8.66,5.84c3.19,0.52,6.28,0.16,9.16-1.44
				c0.33-0.18,0.65-0.39,1.04-0.62c1.38,2.24,2.76,4.46,4.19,6.77c-0.73,0.39-1.41,0.8-2.13,1.12c-3.88,1.78-7.97,2.32-12.2,2.01
				c-3.83-0.28-7.41-1.34-10.63-3.45c-4.88-3.2-7.75-7.71-8.62-13.47c-0.66-4.35-0.12-8.55,1.89-12.5
				c2.38-4.69,6.14-7.85,11.07-9.58c5.74-2.01,11.51-1.92,17.22,0.15c2.37,0.86,4.46,2.21,6.29,3.95c0.12,0.11,0.23,0.23,0.33,0.34
				C37.1,5.92,37.1,5.97,37.14,6.05z"/>
		</g>
	</g>
	<g>
		<path class="st2" d="M43.94,22.59c0.49,0,0.89,0.08,1.22,0.23c0.33,0.15,0.58,0.37,0.77,0.65c-0.1,0.11-0.2,0.24-0.29,0.39
			c-0.09,0.15-0.17,0.31-0.24,0.46c-0.07,0.15-0.12,0.29-0.16,0.43c-0.04,0.14-0.06,0.24-0.06,0.32c0,0.09,0.04,0.18,0.11,0.25
			c0.07,0.07,0.18,0.11,0.33,0.11c0.15-0.57,0.36-1.05,0.63-1.43c0.27-0.39,0.58-0.69,0.93-0.93c0.35-0.23,0.73-0.4,1.13-0.49
			c0.4-0.1,0.82-0.14,1.23-0.14c0.34,0,0.65,0.02,0.93,0.06c0.28,0.04,0.54,0.1,0.77,0.17c0.23,0.07,0.43,0.15,0.6,0.24
			s0.32,0.18,0.44,0.26c0.13,0.32,0.22,0.67,0.27,1.03c0.05,0.36,0.08,0.72,0.08,1.06c0,0.62-0.06,1.15-0.17,1.56
			c-0.11,0.42-0.24,0.76-0.37,1.03c-0.13,0.06-0.28,0.12-0.47,0.19c-0.19,0.06-0.4,0.12-0.62,0.16s-0.46,0.08-0.71,0.11
			c-0.25,0.03-0.5,0.04-0.74,0.04c-0.26,0-0.49-0.01-0.69-0.02c-0.2-0.02-0.38-0.04-0.55-0.06c-0.17-0.03-0.32-0.06-0.45-0.09
			s-0.28-0.07-0.42-0.1c-0.06,0.06-0.09,0.15-0.09,0.27c0,0.11,0.07,0.19,0.22,0.25c0.15,0.06,0.41,0.13,0.78,0.2v5.81
			c-0.27,0.17-0.54,0.31-0.81,0.41c-0.28,0.1-0.54,0.19-0.81,0.24c-0.26,0.06-0.52,0.1-0.75,0.12c-0.24,0.02-0.46,0.03-0.67,0.03
			c-0.44,0-0.85-0.04-1.24-0.12s-0.72-0.2-1.01-0.37s-0.51-0.38-0.68-0.63c-0.17-0.25-0.25-0.56-0.25-0.91v-5.96
			c-0.24-0.32-0.41-0.69-0.52-1.1s-0.17-0.84-0.17-1.28c0-0.37,0.06-0.78,0.17-1.23s0.29-0.84,0.52-1.19H43.94z"/>
		<path class="st2" d="M64.38,29.51c0,0.53,0.06,0.97,0.18,1.32c0.12,0.35,0.34,0.62,0.67,0.82c0.01,0.06,0.01,0.14,0.01,0.23
			c0,0.09,0,0.16,0,0.2c0,0.59-0.09,1.09-0.28,1.52c-0.19,0.42-0.43,0.77-0.74,1.05s-0.65,0.48-1.03,0.61
			c-0.39,0.13-0.78,0.2-1.18,0.2c-0.28,0-0.56-0.03-0.83-0.1c-0.27-0.07-0.53-0.16-0.77-0.29s-0.46-0.3-0.65-0.5
			c-0.19-0.2-0.34-0.45-0.45-0.72c-0.13,0-0.23,0.03-0.3,0.1c-0.07,0.07-0.1,0.16-0.1,0.28c0,0.11,0.04,0.22,0.11,0.35
			s0.17,0.25,0.31,0.38c-0.25,0.17-0.59,0.3-1.01,0.38c-0.42,0.08-0.86,0.13-1.3,0.13c-0.72,0-1.37-0.1-1.95-0.29
			c-0.59-0.19-1.09-0.48-1.51-0.86s-0.75-0.84-0.98-1.38s-0.35-1.17-0.35-1.88c0-0.73,0.12-1.37,0.37-1.9
			c0.25-0.54,0.58-0.98,1.01-1.33c0.42-0.35,0.92-0.61,1.48-0.78c0.56-0.17,1.16-0.25,1.79-0.25c0.28,0,0.53,0.01,0.75,0.03
			c0.22,0.02,0.41,0.04,0.57,0.06c0.18,0.03,0.33,0.06,0.46,0.09c0.02-0.08,0.04-0.14,0.04-0.2c0-0.1-0.05-0.19-0.16-0.25
			c-0.11-0.07-0.25-0.12-0.42-0.16s-0.37-0.06-0.6-0.08c-0.23-0.02-0.46-0.02-0.7-0.02c-0.53,0-1.07,0.06-1.6,0.17
			s-1.01,0.29-1.44,0.53c-0.17-0.29-0.31-0.65-0.42-1.09c-0.11-0.44-0.16-0.89-0.16-1.34c0-0.22,0.01-0.43,0.04-0.65
			c0.03-0.22,0.08-0.41,0.17-0.58c0.2-0.09,0.47-0.19,0.78-0.31c0.32-0.11,0.69-0.22,1.11-0.31c0.42-0.1,0.88-0.18,1.39-0.25
			c0.51-0.07,1.05-0.1,1.63-0.1c1.01,0,1.9,0.11,2.66,0.34c0.76,0.22,1.39,0.55,1.89,0.97c0.5,0.42,0.88,0.94,1.13,1.55
			s0.38,1.31,0.38,2.08V29.51z M58.26,30.08c-0.18,0-0.31,0.04-0.38,0.13c-0.07,0.09-0.11,0.19-0.11,0.31
			c0,0.15,0.06,0.26,0.17,0.32c0.11,0.06,0.25,0.09,0.41,0.09c0.25,0,0.44-0.06,0.58-0.19c0.13-0.12,0.2-0.35,0.2-0.67H58.26z"/>
		<path class="st2" d="M71.94,22.06c-0.32,0.02-0.64,0.05-0.96,0.1c-0.31,0.05-0.6,0.11-0.84,0.19c-0.25,0.07-0.45,0.16-0.61,0.25
			c-0.16,0.09-0.24,0.2-0.24,0.31c0,0.05,0.02,0.1,0.05,0.16c0.03,0.06,0.08,0.11,0.14,0.14c0.32-0.15,0.71-0.3,1.17-0.43
			c0.46-0.13,0.98-0.2,1.57-0.2c0.86,0,1.65,0.15,2.36,0.45s1.34,0.73,1.87,1.28c0.53,0.56,0.94,1.22,1.23,2
			c0.29,0.78,0.44,1.64,0.44,2.59c0,1.19-0.18,2.2-0.54,3.05c-0.36,0.84-0.85,1.54-1.47,2.08s-1.36,0.94-2.22,1.19
			c-0.85,0.25-1.77,0.38-2.77,0.38c-0.4,0-0.81-0.02-1.23-0.06c-0.42-0.04-0.83-0.1-1.24-0.19c-0.4-0.09-0.79-0.21-1.14-0.35
			c-0.36-0.15-0.67-0.33-0.94-0.54s-0.48-0.47-0.64-0.76c-0.16-0.29-0.24-0.62-0.24-1v-13.2c0.36-0.21,0.81-0.38,1.34-0.53
			c0.53-0.14,1.08-0.21,1.63-0.21c0.41,0,0.81,0.04,1.2,0.13c0.39,0.08,0.74,0.22,1.04,0.4s0.55,0.42,0.73,0.71
			c0.18,0.29,0.28,0.64,0.28,1.05V22.06z M71.57,28.67c0,0.25,0,0.47-0.01,0.65c-0.01,0.18-0.02,0.34-0.02,0.47
			s-0.02,0.26-0.04,0.36c-0.02,0.11-0.03,0.22-0.04,0.35c0.03,0.03,0.07,0.06,0.11,0.08c0.04,0.02,0.1,0.03,0.17,0.03
			c0.08,0,0.15-0.02,0.21-0.07c0.06-0.05,0.11-0.15,0.15-0.3c0.04-0.15,0.06-0.35,0.08-0.59c0.01-0.24,0.02-0.53,0.02-0.88V27.6
			c0-0.2-0.03-0.34-0.08-0.43c-0.05-0.09-0.15-0.13-0.3-0.13c-0.11,0-0.19,0.03-0.25,0.08V28.67z"/>
		<path class="st2" d="M81.92,22.59c0.33,0,0.61,0.06,0.83,0.17s0.42,0.26,0.6,0.44c-0.35,0.32-0.52,0.58-0.52,0.79
			c0,0.09,0.03,0.18,0.09,0.25s0.17,0.11,0.32,0.11c0.16-0.27,0.35-0.52,0.59-0.76s0.52-0.45,0.84-0.63
			c0.32-0.18,0.69-0.33,1.1-0.43c0.41-0.11,0.87-0.16,1.39-0.16c0.39,0,0.76,0.05,1.09,0.14c0.33,0.09,0.63,0.21,0.9,0.36
			c0.27,0.15,0.5,0.31,0.68,0.48c0.19,0.17,0.34,0.35,0.45,0.52c0.19-0.25,0.41-0.46,0.66-0.65c0.25-0.19,0.52-0.35,0.81-0.47
			c0.29-0.12,0.59-0.22,0.9-0.28c0.31-0.06,0.62-0.09,0.93-0.09c0.72,0,1.36,0.11,1.92,0.34c0.55,0.22,1.02,0.55,1.4,0.97
			s0.66,0.93,0.86,1.53c0.2,0.6,0.29,1.27,0.29,2.02c0,0.35-0.01,0.73-0.02,1.13c-0.02,0.41-0.02,0.8-0.02,1.17
			c0,0.53,0.06,0.98,0.18,1.35c0.12,0.37,0.34,0.65,0.67,0.85c0.01,0.06,0.01,0.13,0.01,0.2c0,0.07,0,0.13,0,0.17
			c0,0.55-0.09,1.03-0.27,1.45s-0.42,0.77-0.71,1.06c-0.3,0.29-0.65,0.5-1.05,0.64s-0.83,0.21-1.27,0.21
			c-0.47,0-0.92-0.06-1.35-0.19c-0.43-0.12-0.81-0.33-1.13-0.61c-0.33-0.29-0.59-0.66-0.78-1.12c-0.19-0.46-0.29-1.03-0.29-1.71
			v-3.66c0-0.52-0.17-0.78-0.52-0.78c-0.06,0-0.11,0.01-0.18,0.03c-0.06,0.02-0.11,0.04-0.14,0.06l0.21,1.72v2.62
			c0,0.5,0.04,0.95,0.12,1.35c0.08,0.4,0.22,0.74,0.41,1.04c-0.39,0.4-0.86,0.71-1.42,0.93c-0.56,0.22-1.13,0.32-1.7,0.32
			c-0.42,0-0.81-0.05-1.19-0.15c-0.38-0.1-0.71-0.27-1-0.52c-0.29-0.25-0.52-0.58-0.69-1c-0.17-0.42-0.25-0.94-0.25-1.56v-4.06
			c0-0.52-0.17-0.78-0.52-0.78c-0.06,0-0.11,0.01-0.18,0.03c-0.06,0.02-0.11,0.04-0.14,0.06l0.21,1.72v3.07
			c0,0.42,0.02,0.78,0.06,1.09c0.04,0.31,0.14,0.62,0.29,0.91c-0.35,0.35-0.8,0.64-1.35,0.85s-1.19,0.32-1.89,0.32
			c-0.37,0-0.74-0.05-1.1-0.15s-0.69-0.25-0.98-0.46c-0.29-0.21-0.53-0.47-0.71-0.78c-0.18-0.31-0.27-0.68-0.27-1.12v-5.53
			c-0.24-0.32-0.41-0.69-0.52-1.1s-0.17-0.84-0.17-1.28c0-0.37,0.06-0.78,0.17-1.23s0.29-0.84,0.52-1.19H81.92z"/>
		<path class="st2" d="M102.18,22.59c0.56,0,1.02,0.08,1.39,0.24s0.66,0.36,0.88,0.62c0.22,0.25,0.39,0.54,0.5,0.87
			c0.11,0.32,0.18,0.66,0.22,1c-0.02,0.18-0.05,0.41-0.08,0.71c-0.03,0.3-0.06,0.63-0.09,1c-0.03,0.37-0.05,0.75-0.06,1.16
			c-0.02,0.41-0.02,0.81-0.02,1.21c0,0.08,0,0.18,0,0.27c0,0.1,0,0.18,0.01,0.26c0.05,0.02,0.09,0.04,0.14,0.05
			c0.04,0.01,0.08,0.01,0.12,0.01c0.13,0,0.21-0.05,0.27-0.14c0.05-0.09,0.08-0.22,0.08-0.37c0-0.65,0.02-1.29,0.06-1.93
			c0.04-0.64,0.09-1.24,0.15-1.8s0.13-1.07,0.2-1.53c0.07-0.46,0.14-0.83,0.21-1.11c0.35-0.25,0.74-0.42,1.17-0.53
			s0.91-0.16,1.43-0.16c0.54,0,1.02,0.06,1.43,0.18c0.41,0.12,0.75,0.28,1.02,0.47c0.27,0.19,0.48,0.41,0.61,0.66
			c0.14,0.25,0.21,0.5,0.21,0.76c0,0.05-0.02,0.2-0.05,0.46c-0.03,0.26-0.08,0.6-0.15,1.02c-0.07,0.42-0.15,0.92-0.25,1.49
			c-0.1,0.57-0.22,1.17-0.35,1.82s-0.29,1.33-0.46,2.04c-0.17,0.71-0.36,1.43-0.56,2.16c-0.35,1.22-0.77,2.21-1.26,2.98
			c-0.49,0.77-1.03,1.37-1.62,1.8c-0.59,0.44-1.2,0.73-1.85,0.9c-0.65,0.16-1.29,0.24-1.95,0.24c-0.67,0-1.25-0.08-1.73-0.25
			c-0.49-0.17-0.89-0.39-1.21-0.67c-0.32-0.28-0.56-0.61-0.71-0.98s-0.24-0.76-0.24-1.17c0-0.39,0.06-0.77,0.17-1.13
			c0.11-0.36,0.3-0.73,0.57-1.12c0.06-0.02,0.15-0.03,0.25-0.03c0.11-0.01,0.21-0.01,0.3-0.01c0.24,0,0.47,0.01,0.71,0.04
			c0.24,0.03,0.42,0.05,0.57,0.08l1.85,0.34c0.09,0.02,0.17,0.03,0.26,0.05c0.09,0.02,0.17,0.02,0.26,0.02
			c0.13,0,0.25-0.03,0.34-0.08c0.09-0.05,0.14-0.18,0.14-0.38l-2.78-0.52c-0.29-0.12-0.59-0.31-0.9-0.59
			c-0.31-0.28-0.6-0.66-0.88-1.15c-0.27-0.49-0.52-1.1-0.75-1.83s-0.4-1.61-0.51-2.63c-0.21-0.27-0.4-0.6-0.55-1
			c-0.15-0.4-0.23-0.84-0.23-1.34c0-0.42,0.06-0.85,0.17-1.27c0.11-0.42,0.29-0.82,0.54-1.19H102.18z"/>
		<path class="st2" d="M113.18,27.93h0.73c0.2,0,0.35-0.03,0.45-0.1c0.09-0.07,0.14-0.16,0.14-0.28c0-0.05-0.01-0.09-0.02-0.14
			h-2.64c-0.09-0.28-0.15-0.58-0.19-0.92c-0.04-0.34-0.06-0.68-0.06-1.02c0-0.22,0.01-0.48,0.04-0.77c0.03-0.29,0.06-0.53,0.11-0.72
			c0.33-0.2,0.66-0.42,0.98-0.65c0.33-0.23,0.62-0.44,0.87-0.62c0.07-0.16,0.15-0.37,0.25-0.64c0.09-0.26,0.19-0.54,0.28-0.82
			c0.09-0.29,0.18-0.56,0.27-0.83c0.09-0.27,0.16-0.49,0.22-0.67c0.25-0.06,0.59-0.12,1-0.16c0.42-0.05,0.84-0.07,1.27-0.07
			c0.34,0,0.68,0.02,1.02,0.06c0.34,0.04,0.72,0.1,1.13,0.19v2.83h2.04c0.23,0.34,0.4,0.72,0.51,1.14c0.11,0.42,0.17,0.84,0.17,1.26
			c0,0.39-0.06,0.81-0.17,1.26c-0.11,0.44-0.29,0.83-0.51,1.15h-1.69v1.75c0,0.53,0.11,0.91,0.33,1.14s0.53,0.34,0.93,0.34h0.51
			c0.06,0.23,0.12,0.48,0.17,0.74c0.05,0.26,0.08,0.52,0.08,0.79c0,1.07-0.34,1.89-1.03,2.45s-1.66,0.84-2.92,0.84
			c-0.64,0-1.22-0.08-1.74-0.25c-0.52-0.17-0.97-0.43-1.35-0.77c-0.38-0.35-0.67-0.78-0.87-1.3c-0.2-0.52-0.31-1.14-0.31-1.85V27.93
			z"/>
		<path class="st2" d="M122.34,24.11c0.16-0.1,0.31-0.18,0.47-0.24c0.16-0.06,0.33-0.14,0.51-0.23c-0.15-0.08-0.3-0.19-0.46-0.32
			c-0.16-0.14-0.3-0.31-0.43-0.5s-0.24-0.42-0.32-0.68s-0.12-0.54-0.12-0.86c0-0.49,0.09-0.94,0.27-1.35
			c0.18-0.41,0.42-0.75,0.73-1.04c0.31-0.29,0.66-0.51,1.07-0.68s0.85-0.24,1.32-0.24c0.48,0,0.92,0.08,1.33,0.25
			c0.4,0.17,0.76,0.4,1.06,0.69c0.3,0.29,0.53,0.64,0.7,1.05c0.17,0.4,0.25,0.84,0.25,1.31c0,0.4-0.07,0.77-0.21,1.12
			c-0.14,0.34-0.32,0.65-0.55,0.92c-0.23,0.27-0.5,0.5-0.8,0.68c-0.31,0.18-0.62,0.31-0.96,0.38c0,0.12,0.03,0.22,0.08,0.31
			c0.05,0.09,0.14,0.13,0.27,0.13c0.39,0,0.8-0.15,1.23-0.46c0.02,0.02,0.06,0.04,0.12,0.08c0.06,0.04,0.11,0.08,0.18,0.14
			c0.06,0.05,0.12,0.11,0.18,0.16c0.05,0.05,0.09,0.09,0.11,0.11v4.58c0,0.53,0.06,0.99,0.18,1.37c0.12,0.38,0.34,0.67,0.67,0.87
			c0.01,0.06,0.01,0.14,0.01,0.23c0,0.09,0,0.16,0,0.2c0,0.59-0.08,1.09-0.25,1.52c-0.17,0.42-0.4,0.77-0.7,1.05
			c-0.3,0.27-0.65,0.48-1.07,0.61c-0.41,0.13-0.86,0.2-1.35,0.2c-0.38,0-0.77-0.06-1.19-0.19c-0.41-0.12-0.79-0.33-1.13-0.62
			c-0.34-0.29-0.62-0.68-0.85-1.17s-0.34-1.1-0.34-1.83V24.11z"/>
		<path class="st2" d="M137.04,22.5c0.13-0.05,0.28-0.09,0.45-0.12c0.17-0.03,0.35-0.06,0.53-0.09c0.19-0.02,0.37-0.04,0.56-0.06
			c0.19-0.02,0.37-0.02,0.53-0.02c0.57,0,1.08,0.08,1.52,0.25c0.44,0.17,0.81,0.4,1.1,0.69c0.29,0.29,0.51,0.62,0.66,1.01
			c0.15,0.38,0.22,0.78,0.22,1.21c0,0.52-0.1,1-0.29,1.42c-0.19,0.42-0.45,0.79-0.77,1.12c-0.32,0.32-0.68,0.6-1.08,0.82
			c-0.4,0.22-0.81,0.4-1.23,0.53c0,0.15,0.04,0.26,0.12,0.31c0.08,0.05,0.17,0.08,0.28,0.08c0.16,0,0.33-0.04,0.52-0.12
			c0.19-0.08,0.41-0.19,0.66-0.32c0.28,0.39,0.57,0.79,0.9,1.2s0.69,0.9,1.1,1.46c-0.02,0.55-0.11,1.04-0.28,1.48
			c-0.17,0.44-0.4,0.82-0.7,1.13s-0.64,0.55-1.03,0.72c-0.39,0.17-0.82,0.25-1.27,0.25c-0.49,0-0.92-0.07-1.31-0.2
			s-0.72-0.32-1.01-0.56c-0.29-0.24-0.53-0.52-0.73-0.85c-0.2-0.33-0.36-0.68-0.48-1.07L135.08,35c-0.21,0.12-0.5,0.23-0.86,0.32
			c-0.36,0.09-0.76,0.14-1.19,0.14c-0.47,0-0.92-0.08-1.34-0.23c-0.42-0.15-0.8-0.38-1.12-0.67c-0.32-0.29-0.58-0.65-0.77-1.07
			c-0.19-0.42-0.28-0.9-0.28-1.44c0-0.4,0.06-0.76,0.18-1.09c0.12-0.32,0.28-0.62,0.48-0.88c0.2-0.26,0.42-0.49,0.66-0.69
			s0.49-0.38,0.73-0.53c0.24-0.15,0.47-0.27,0.69-0.37c0.22-0.1,0.4-0.18,0.54-0.24c-0.02-0.08-0.06-0.15-0.12-0.21
			c-0.05-0.06-0.15-0.09-0.28-0.09c-0.13,0-0.29,0.04-0.48,0.11c-0.18,0.07-0.39,0.19-0.61,0.35c-0.18-0.11-0.37-0.26-0.57-0.45
			c-0.2-0.19-0.38-0.41-0.54-0.67c-0.17-0.25-0.3-0.54-0.41-0.84c-0.11-0.31-0.17-0.64-0.17-0.98c0-0.54,0.09-1.01,0.28-1.42
			c0.19-0.41,0.45-0.75,0.79-1.02c0.34-0.27,0.74-0.48,1.2-0.61c0.46-0.14,0.96-0.2,1.49-0.2c0.32,0,0.62,0.03,0.88,0.09
			c0.27,0.06,0.52,0.13,0.74,0.21c0.08,0.15,0.17,0.32,0.27,0.51c0.1,0.19,0.21,0.4,0.32,0.61c0.11,0.21,0.23,0.43,0.34,0.65
			c0.11,0.22,0.23,0.43,0.34,0.64L137.04,22.5z"/>
	</g>
</g>
</svg>
