<?xml version="1.0" encoding="UTF-8"?>
<svg id="Layer_1" data-name="Layer 1" xmlns="http://www.w3.org/2000/svg" xmlns:xlink="http://www.w3.org/1999/xlink" viewBox="0 0 41.59 49.79">
  <defs>
    <linearGradient id="linear-gradient" x1="27.97" y1="36.66" x2="27.97" y2="15.04" gradientUnits="userSpaceOnUse">
      <stop offset="0" stop-color="#fff23a"/>
      <stop offset="0" stop-color="#feed3a"/>
      <stop offset=".07" stop-color="#f9cb3b"/>
      <stop offset=".13" stop-color="#f6b13d"/>
      <stop offset=".19" stop-color="#f39e3e"/>
      <stop offset=".26" stop-color="#f2923e"/>
      <stop offset=".33" stop-color="#f28f3f"/>
      <stop offset=".52" stop-color="#ed693c"/>
      <stop offset=".79" stop-color="#e83e39"/>
    </linearGradient>
  </defs>
  <path d="m36.31,15.04c.78,7.26,1.53,14.36,2.31,21.62-.67-.85-1.26-1.57-1.84-2.31-1.88-2.42-3.77-4.84-5.63-7.28-.29-.38-.59-.48-1.04-.43-4.04.48-8.08.94-12.13,1.4-.21.02-.41.04-.68-.08,6.3-4.28,12.61-8.57,19.01-12.92Z" style="fill: url(#linear-gradient); stroke-width: 0px;"/>
  <path d="m37.14,6.05c-1.1.59-2.2,1.18-3.31,1.77-1.21.65-2.44,1.28-3.63,1.95-.4.23-.69.19-1.08-.03-4.47-2.6-9.09-2.67-13.67-.43-3.5,1.72-5.43,4.74-6.06,8.54-.52,3.11-.17,6.13,1.39,8.92,1.9,3.39,4.9,5.22,8.66,5.84,3.19.52,6.28.16,9.16-1.44.33-.18.65-.39,1.04-.62,1.38,2.24,2.76,4.46,4.19,6.77-.73.39-1.41.8-2.13,1.12-3.88,1.78-7.97,2.32-12.2,2.01-3.83-.28-7.41-1.34-10.63-3.45-4.88-3.2-7.75-7.71-8.62-13.47-.66-4.35-.12-8.55,1.89-12.5C4.53,6.34,8.29,3.18,13.23,1.46c5.74-2.01,11.51-1.92,17.22.15,2.37.86,4.46,2.21,6.29,3.95.12.11.23.23.33.34.02.03.03.07.06.15Z" style="fill: #2e3191; stroke-width: 0px;"/>
</svg>